<?xml version="1.0" encoding="utf-8"?>
<!-- Generator: Adobe Illustrator 24.0.1, SVG Export Plug-In . SVG Version: 6.00 Build 0)  -->
<svg version="1.1" id="Layer_1" xmlns="http://www.w3.org/2000/svg" xmlns:xlink="http://www.w3.org/1999/xlink" x="0px" y="0px"
	 viewBox="0 0 1648.6 2048" style="enable-background:new 0 0 1648.6 2048;" xml:space="preserve">
<path d="M44.4,231.2c28.6,6.7,57.8,5.1,86.8,3c30.2-2.1,60.4-3.4,90.6-3.2c30.1,0.2,60.2,1.8,90.1,5.5c0.5,0.1,1.5,0.2,2.5,0.3
	c3.6,0.5,7.2,1.1,10.8,1.6c7.2,1.1,14.3,2.4,21.5,3.8c13.7,2.6,27.3,5.6,40.8,8.9c110.7,27.2,213.8,79.3,326.6,98.1
	c28.4,4.7,57.2,8.1,86,8.9c0.8,0,1.6,0.1,2.4,0.1c0.7,0,1.4,0,2.1,0c54.1-0.2,107.9-5.1,160.8-16.7c55.9-12.3,110.1-31.1,163.9-50.4
	c52.9-19,106.3-35.4,161.7-45.4c6.5-1.2,13-2.3,19.5-3.3c3-0.5,6-0.9,9.1-1.3c1.5-0.2,4.3-0.6,4.8-0.6c13.6-1.7,27.3-3,41-3.9
	c28.2-1.9,56.5-2.2,84.7-0.8c28.6,1.4,57.1,6.7,85.7,7c32.5,0.3,68.2-5.3,93-28c27.6-25.4,24.5-66.7-0.1-92.6
	c-10-10.6-23.3-18.5-35.5-26.4c-10.1-6.6-20.4-12.8-30.9-18.8c-92.8-52.4-198.6-78.6-305.1-74.3c-118,4.8-229,49.8-344.7,68.7
	c-6.7,1.1-13.5,2-20.3,3.1c12.8-2.1-0.4,0-3.1,0.3c-3.9,0.5-7.8,0.9-11.7,1.2c-14.2,1.4-28.4,2.3-42.6,2.7c-29.5,0.7-58.8-1.4-88-5
	c-0.5-0.1-2.2-0.3-3.9-0.5c0.7,0.1-6.9-1-8.3-1.2c-7.8-1.2-15.6-2.4-23.4-3.8C697,65.7,683,63,669,60c-28.3-6.1-56.4-13.4-84.2-21.7
	C469,3.9,348.3-13.8,228.9,12.9c-28.7,6.4-56.6,15.6-83.8,26.8C117.4,51.2,90,63.4,64,78.3C37.7,93.5,7.1,110.7-5.2,139.9
	C-21.8,179.4,4.1,221.8,44.4,231.2z"/>
<path d="M44.4,1816.8c28.6-6.7,57.8-5.1,86.8-3c30.2,2.1,60.4,3.4,90.6,3.2c30.1-0.2,60.2-1.8,90.1-5.5c0.5-0.1,1.5-0.2,2.5-0.3
	c3.6-0.5,7.2-1.1,10.8-1.6c7.2-1.1,14.3-2.4,21.5-3.8c13.7-2.6,27.3-5.6,40.8-8.9c110.7-27.2,213.8-79.3,326.6-98.1
	c28.4-4.7,57.2-8.1,86-8.9c0.8,0,1.6-0.1,2.4-0.1c0.7,0,1.4,0,2.1,0c54.1,0.2,107.9,5.1,160.8,16.7c55.9,12.3,110.1,31.1,163.9,50.4
	c52.9,19,106.3,35.4,161.7,45.4c6.5,1.2,13,2.3,19.5,3.3c3,0.5,6,0.9,9.1,1.3c1.5,0.2,4.3,0.6,4.8,0.6c13.6,1.7,27.3,3,41,3.9
	c28.2,1.9,56.5,2.2,84.7,0.8c28.6-1.4,57.1-6.7,85.7-7c32.5-0.3,68.2,5.3,93,28c27.6,25.4,24.5,66.7-0.1,92.6
	c-10,10.6-23.3,18.5-35.5,26.4c-10.1,6.6-20.4,12.8-30.9,18.8c-92.8,52.4-198.6,78.6-305.1,74.3c-118-4.8-229-49.8-344.7-68.7
	c-6.7-1.1-13.5-2-20.3-3.1c12.8,2.1-0.4,0-3.1-0.3c-3.9-0.5-7.8-0.9-11.7-1.2c-14.2-1.4-28.4-2.3-42.6-2.7c-29.5-0.7-58.8,1.4-88,5
	c-0.5,0.1-2.2,0.3-3.9,0.5c0.7-0.1-6.9,1-8.3,1.2c-7.8,1.2-15.6,2.4-23.4,3.8c-14.1,2.4-28.1,5.2-42.1,8.2
	c-28.3,6.1-56.4,13.4-84.2,21.7c-115.8,34.4-236.5,52-355.9,25.4c-28.7-6.4-56.6-15.6-83.8-26.8c-27.7-11.4-55.1-23.6-81-38.6
	c-26.4-15.2-56.9-32.4-69.2-61.6C-21.8,1868.6,4.1,1826.2,44.4,1816.8z"/>
<path d="M821.9,1243.2c-7.9,0.6-6,0.7-3.6,0.5c1.1-0.2,2.2-0.3,3.3-0.4C821.7,1243.2,821.8,1243.2,821.9,1243.2z"/>
<path d="M1647.8,1013.3c-3.8-28.5-21.6-51.2-47.1-65.5c-22.7-12.7-48.7-21.4-73.6-28.5c-55.6-15.8-112.6-19.1-170.1-18.8
	c-116,0.6-232,3-348,2.7c-57-0.1-114-0.9-171-2.8c-29.2-1-58.4,0.8-87.6,1.6c-28.6,0.8-57.3,1.5-85.9,2
	c-114.8,2-229.6,1.8-344.4,0.6c-57.3-0.6-113.8-1.3-170.5,9.2c-25.8,4.8-51.1,12-75.4,21.9c-27.7,11.3-54.9,23-72.7,48.4
	c-19.9,28.5-13.6,65.4,8.6,90.3c18.1,20.4,47.2,31,72,40.4c51.5,19.6,107.5,27.4,162.3,28.5c56.6,1.2,113.5-0.9,170.2-1.2
	c56.9-0.3,113.8-0.2,170.6,0.3c57.7,0.5,115.5,1.6,173.2,3.3c29.2,0.9,58.3,2.1,87.5,1.1c28.5-0.9,56.9-1.5,85.4-1.9
	c115.8-1.6,231.6,0.3,347.3,1.4c56.3,0.6,113.6,4,169.6-3c29.1-3.6,57.8-8.7,86-17.2c24.3-7.3,50.8-15.7,72.2-29.7
	c12.5-8.2,23-17.7,31-30.3c7.4-11.6,9.9-24.2,10.9-37.4c0.3-2.2,0.5-4.6,0.4-6.9C1648.7,1019,1648.4,1016.2,1647.8,1013.3z"/>
</svg>
